<?xml version="1.0" encoding="utf-8"?>
<!-- Generator: Adobe Illustrator 18.0.0, SVG Export Plug-In . SVG Version: 6.00 Build 0)  -->
<!DOCTYPE svg PUBLIC "-//W3C//DTD SVG 1.1//EN" "http://www.w3.org/Graphics/SVG/1.1/DTD/svg11.dtd">
<svg version="1.1" id="Layer_1" xmlns="http://www.w3.org/2000/svg" xmlns:xlink="http://www.w3.org/1999/xlink" x="0px" y="0px"
	 width="24px" height="120px" viewBox="0 0 24 120" enable-background="new 0 0 24 120" xml:space="preserve">
<g>
	<circle fill="#BBBBBB" cx="11.9" cy="19.1" r="1.9"/>
	<circle fill="#BBBBBB" cx="11.9" cy="9.5" r="1.9"/>
	<path fill="#BBBBBB" d="M8.2,19.1c0-2,1.6-3.6,3.6-3.6H12v-2.4h-0.2c-2,0-3.6-1.6-3.6-3.6c0-2,1.6-3.6,3.6-3.6H12V3H6
		C4.3,3,3,4.3,3,6v12c0,1.7,1.3,3,3,3h2.8C8.5,20.4,8.2,19.8,8.2,19.1z"/>
	<path fill="#BBBBBB" d="M18,3h-4.4v3.3c1.1,0.6,1.8,1.9,1.8,3.2c0,1.3-0.7,2.6-1.8,3.2v3.2c1.1,0.6,1.8,1.9,1.8,3.2
		c0,0.7-0.2,1.3-0.6,1.9H18c1.7,0,3-1.3,3-3V6C21,4.3,19.7,3,18,3z"/>
</g>
<g>
	<circle fill="#91CC41" cx="11.9" cy="43.1" r="1.9"/>
	<circle fill="#91CC41" cx="11.9" cy="33.5" r="1.9"/>
	<path fill="#91CC41" d="M8.2,43.1c0-2,1.6-3.6,3.6-3.6H12v-2.4h-0.2c-2,0-3.6-1.6-3.6-3.6c0-2,1.6-3.6,3.6-3.6H12V27H6
		c-1.7,0-3,1.3-3,3v12c0,1.7,1.3,3,3,3h2.8C8.5,44.4,8.2,43.8,8.2,43.1z"/>
	<path fill="#91CC41" d="M18,27h-4.4v3.3c1.1,0.6,1.8,1.9,1.8,3.2c0,1.3-0.7,2.6-1.8,3.2v3.2c1.1,0.6,1.8,1.9,1.8,3.2
		c0,0.7-0.2,1.3-0.6,1.9H18c1.7,0,3-1.3,3-3V30C21,28.3,19.7,27,18,27z"/>
</g>
<g>
	<circle fill="#E3B551" cx="11.9" cy="67.1" r="1.9"/>
	<circle fill="#E3B551" cx="11.9" cy="57.5" r="1.9"/>
	<path fill="#E3B551" d="M8.2,67.1c0-2,1.6-3.6,3.6-3.6H12v-2.4h-0.2c-2,0-3.6-1.6-3.6-3.6c0-2,1.6-3.6,3.6-3.6H12V51H6
		c-1.7,0-3,1.3-3,3v12c0,1.7,1.3,3,3,3h2.8C8.5,68.4,8.2,67.8,8.2,67.1z"/>
	<path fill="#E3B551" d="M18,51h-4.4v3.3c1.1,0.6,1.8,1.9,1.8,3.2c0,1.3-0.7,2.6-1.8,3.2v3.2c1.1,0.6,1.8,1.9,1.8,3.2
		c0,0.7-0.2,1.3-0.6,1.9H18c1.7,0,3-1.3,3-3V54C21,52.3,19.7,51,18,51z"/>
</g>
<g>
	<circle fill="#F74687" cx="11.9" cy="91.1" r="1.9"/>
	<circle fill="#F74687" cx="11.9" cy="81.5" r="1.9"/>
	<path fill="#F74687" d="M8.2,91.1c0-2,1.6-3.6,3.6-3.6H12v-2.4h-0.2c-2,0-3.6-1.6-3.6-3.6c0-2,1.6-3.6,3.6-3.6H12V75H6
		c-1.7,0-3,1.3-3,3v12c0,1.7,1.3,3,3,3h2.8C8.5,92.4,8.2,91.8,8.2,91.1z"/>
	<path fill="#F74687" d="M18,75h-4.4v3.3c1.1,0.6,1.8,1.9,1.8,3.2c0,1.3-0.7,2.6-1.8,3.2v3.2c1.1,0.6,1.8,1.9,1.8,3.2
		c0,0.7-0.2,1.3-0.6,1.9H18c1.7,0,3-1.3,3-3V78C21,76.3,19.7,75,18,75z"/>
</g>
<g>
	<circle fill="#78B2F2" cx="11.9" cy="115.1" r="1.9"/>
	<circle fill="#78B2F2" cx="11.9" cy="105.5" r="1.9"/>
	<path fill="#78B2F2" d="M8.2,115.1c0-2,1.6-3.6,3.6-3.6H12v-2.4h-0.2c-2,0-3.6-1.6-3.6-3.6c0-2,1.6-3.6,3.6-3.6H12V99H6
		c-1.7,0-3,1.3-3,3v12c0,1.7,1.3,3,3,3h2.8C8.5,116.4,8.2,115.8,8.2,115.1z"/>
	<path fill="#78B2F2" d="M18,99h-4.4v3.3c1.1,0.6,1.8,1.9,1.8,3.2c0,1.3-0.7,2.6-1.8,3.2v3.2c1.1,0.6,1.8,1.9,1.8,3.2
		c0,0.7-0.2,1.3-0.6,1.9H18c1.7,0,3-1.3,3-3v-12C21,100.3,19.7,99,18,99z"/>
</g>
</svg>
