<?xml version="1.0" encoding="utf-8"?>
<!-- Generator: Adobe Illustrator 18.1.0, SVG Export Plug-In . SVG Version: 6.00 Build 0)  -->
<!DOCTYPE svg PUBLIC "-//W3C//DTD SVG 1.1//EN" "http://www.w3.org/Graphics/SVG/1.1/DTD/svg11.dtd">
<svg version="1.1" id="Layer_1" xmlns="http://www.w3.org/2000/svg" xmlns:xlink="http://www.w3.org/1999/xlink" x="0px" y="0px"
	 width="24px" height="120px" viewBox="341 390 24 120" enable-background="new 341 390 24 120" xml:space="preserve">
<text transform="matrix(1 0 0 1 1141 840)" fill="#BBBBBB" font-family="'MyriadPro-Regular'" font-size="12">BBBBBB</text>
<g>
	<path fill="#BBBBBB" d="M353,407.5c-0.5,0-0.9,0.2-1.3,0.5c-0.1,0.1-0.3,0.2-0.4,0.3c0.4,0.5,1,0.8,1.7,0.8s1.3-0.3,1.7-0.8
		c-0.1-0.1-0.3-0.2-0.4-0.3C353.9,407.6,353.5,407.5,353,407.5z"/>
	<path fill="#BBBBBB" d="M347.9,405.1c-0.1,0-0.1,0-0.2,0c-0.1,0.2-0.1,0.4-0.1,0.5c0,0.5,0.2,0.9,0.5,1.3c0.3,0.3,0.8,0.5,1.3,0.5
		c0.2,0,0.4,0,0.5-0.1c0-0.1,0-0.1,0-0.2C349.9,406,349,405.1,347.9,405.1z"/>
	<path fill="#BBBBBB" d="M353,396.5c0.5,0,0.9-0.2,1.3-0.5c0.1-0.1,0.3-0.2,0.4-0.3c-0.4-0.5-1-0.8-1.7-0.8s-1.3,0.3-1.7,0.8
		c0.1,0.1,0.3,0.2,0.4,0.3C352.1,396.4,352.5,396.5,353,396.5z"/>
	<path fill="#BBBBBB" d="M347.9,398.9c1.1,0,2-0.9,2-2c0-0.1,0-0.1,0-0.2c-0.2-0.1-0.4-0.1-0.5-0.1c-0.5,0-0.9,0.2-1.3,0.5
		c-0.3,0.3-0.5,0.8-0.5,1.3c0,0.2,0,0.4,0.1,0.5C347.7,398.9,347.8,398.9,347.9,398.9z"/>
	<path fill="#BBBBBB" d="M346.7,400.3c-0.5,0.4-0.8,1-0.8,1.7c0,0.7,0.3,1.3,0.8,1.7c0.1-0.1,0.2-0.3,0.3-0.4
		c0.3-0.3,0.5-0.8,0.5-1.3s-0.2-0.9-0.5-1.3C346.9,400.6,346.8,400.5,346.7,400.3z"/>
	<path fill="#BBBBBB" d="M356.6,396.6c-0.2,0-0.4,0-0.5,0.1c0,0.1,0,0.1,0,0.2c0,1.1,0.9,2,2,2c0.1,0,0.1,0,0.2,0
		c0.1-0.2,0.1-0.4,0.1-0.5c0-0.5-0.2-0.9-0.5-1.3C357.6,396.8,357.1,396.6,356.6,396.6z"/>
	<path fill="#BBBBBB" d="M353,391c-6.1,0-11,4.9-11,11s4.9,11,11,11c6.1,0,11-4.9,11-11S359.1,391,353,391z M359.8,404.6
		c0.1,0.3,0.2,0.7,0.2,1c0,0.9-0.3,1.7-1,2.4c-0.6,0.6-1.5,1-2.4,1c-0.4,0-0.7-0.1-1-0.2c-0.6,0.9-1.5,1.4-2.6,1.4
		c-1.1,0-2-0.6-2.6-1.4c-0.3,0.1-0.7,0.2-1,0.2c-0.9,0-1.7-0.3-2.4-1c-0.6-0.6-1-1.5-1-2.4c0-0.4,0.1-0.7,0.2-1
		c-0.9-0.6-1.4-1.5-1.4-2.6c0-1.1,0.6-2,1.4-2.6c-0.1-0.3-0.2-0.7-0.2-1c0-0.9,0.3-1.7,1-2.4c0.6-0.6,1.5-1,2.4-1
		c0.4,0,0.7,0.1,1,0.2c0.6-0.9,1.5-1.4,2.6-1.4c1.1,0,2,0.6,2.6,1.4c0.3-0.1,0.7-0.2,1-0.2c0.9,0,1.7,0.3,2.4,1c0.6,0.6,1,1.5,1,2.4
		c0,0.4-0.1,0.7-0.2,1c0.9,0.6,1.4,1.5,1.4,2.6S360.7,404,359.8,404.6z"/>
	<path fill="#BBBBBB" d="M356.9,402c0-0.8,0.3-1.5,0.7-2.1c-1.3-0.2-2.4-1.3-2.6-2.6c-0.6,0.5-1.3,0.7-2.1,0.7s-1.5-0.3-2.1-0.7
		c-0.2,1.3-1.2,2.4-2.6,2.6c0.5,0.6,0.7,1.3,0.7,2.1c0,0.8-0.3,1.5-0.7,2.1c1.3,0.2,2.4,1.2,2.6,2.6c0.6-0.5,1.3-0.7,2.1-0.7
		c0.8,0,1.5,0.3,2.1,0.7c0.2-1.3,1.2-2.4,2.6-2.6C357.2,403.5,356.9,402.8,356.9,402z"/>
	<path fill="#BBBBBB" d="M359.3,400.3c-0.1,0.1-0.2,0.3-0.3,0.4c-0.3,0.3-0.5,0.8-0.5,1.3c0,0.5,0.2,0.9,0.5,1.3
		c0.1,0.1,0.2,0.2,0.3,0.4c0.5-0.4,0.8-1,0.8-1.7C360.2,401.3,359.8,400.7,359.3,400.3z"/>
	<path fill="#BBBBBB" d="M358.1,405.1c-1.1,0-2,0.9-2,2c0,0.1,0,0.1,0,0.2c0.2,0.1,0.4,0.1,0.5,0.1c0.5,0,0.9-0.2,1.3-0.5
		c0.3-0.3,0.5-0.8,0.5-1.3c0-0.2,0-0.4-0.1-0.5C358.3,405.1,358.2,405.1,358.1,405.1z"/>
</g>
<g>
	<path fill="#91CC41" d="M353,431.5c-0.5,0-0.9,0.2-1.3,0.5c-0.1,0.1-0.3,0.2-0.4,0.3c0.4,0.5,1,0.8,1.7,0.8s1.3-0.3,1.7-0.8
		c-0.1-0.1-0.3-0.2-0.4-0.3C353.9,431.6,353.5,431.5,353,431.5z"/>
	<path fill="#91CC41" d="M347.9,429.1c-0.1,0-0.1,0-0.2,0c-0.1,0.2-0.1,0.4-0.1,0.5c0,0.5,0.2,0.9,0.5,1.3c0.3,0.3,0.8,0.5,1.3,0.5
		c0.2,0,0.4,0,0.5-0.1c0-0.1,0-0.1,0-0.2C349.9,430,349,429.1,347.9,429.1z"/>
	<path fill="#91CC41" d="M353,420.5c0.5,0,0.9-0.2,1.3-0.5c0.1-0.1,0.3-0.2,0.4-0.3c-0.4-0.5-1-0.8-1.7-0.8c-0.7,0-1.3,0.3-1.7,0.8
		c0.1,0.1,0.3,0.2,0.4,0.3C352.1,420.4,352.5,420.5,353,420.5z"/>
	<path fill="#91CC41" d="M347.9,422.9c1.1,0,2-0.9,2-2c0-0.1,0-0.1,0-0.2c-0.2-0.1-0.4-0.1-0.5-0.1c-0.5,0-0.9,0.2-1.3,0.5
		c-0.3,0.3-0.5,0.8-0.5,1.3c0,0.2,0,0.4,0.1,0.5C347.7,422.9,347.8,422.9,347.9,422.9z"/>
	<path fill="#91CC41" d="M346.7,424.3c-0.5,0.4-0.8,1-0.8,1.7s0.3,1.3,0.8,1.7c0.1-0.1,0.2-0.3,0.3-0.4c0.3-0.3,0.5-0.8,0.5-1.3
		c0-0.5-0.2-0.9-0.5-1.3C346.9,424.6,346.8,424.5,346.7,424.3z"/>
	<path fill="#91CC41" d="M356.6,420.6c-0.2,0-0.4,0-0.5,0.1c0,0.1,0,0.1,0,0.2c0,1.1,0.9,2,2,2c0.1,0,0.1,0,0.2,0
		c0.1-0.2,0.1-0.4,0.1-0.5c0-0.5-0.2-0.9-0.5-1.3C357.6,420.8,357.1,420.6,356.6,420.6z"/>
	<path fill="#91CC41" d="M353,415c-6.1,0-11,4.9-11,11s4.9,11,11,11c6.1,0,11-4.9,11-11S359.1,415,353,415z M359.8,428.6
		c0.1,0.3,0.2,0.7,0.2,1c0,0.9-0.3,1.7-1,2.4c-0.6,0.6-1.5,1-2.4,1c-0.4,0-0.7-0.1-1-0.2c-0.6,0.9-1.5,1.4-2.6,1.4s-2-0.6-2.6-1.4
		c-0.3,0.1-0.7,0.2-1,0.2c-0.9,0-1.7-0.3-2.4-1c-0.6-0.6-1-1.5-1-2.4c0-0.4,0.1-0.7,0.2-1c-0.9-0.6-1.4-1.5-1.4-2.6
		c0-1.1,0.6-2,1.4-2.6c-0.1-0.3-0.2-0.7-0.2-1c0-0.9,0.3-1.7,1-2.4c0.6-0.6,1.5-1,2.4-1c0.4,0,0.7,0.1,1,0.2
		c0.6-0.9,1.5-1.4,2.6-1.4c1.1,0,2,0.6,2.6,1.4c0.3-0.1,0.7-0.2,1-0.2c0.9,0,1.7,0.3,2.4,1c0.6,0.6,1,1.5,1,2.4c0,0.4-0.1,0.7-0.2,1
		c0.9,0.6,1.4,1.5,1.4,2.6C361.2,427.1,360.7,428,359.8,428.6z"/>
	<path fill="#91CC41" d="M356.9,426c0-0.8,0.3-1.5,0.7-2.1c-1.3-0.2-2.4-1.3-2.6-2.6c-0.6,0.5-1.3,0.7-2.1,0.7
		c-0.8,0-1.5-0.3-2.1-0.7c-0.2,1.3-1.2,2.4-2.6,2.6c0.5,0.6,0.7,1.3,0.7,2.1c0,0.8-0.3,1.5-0.7,2.1c1.3,0.2,2.4,1.2,2.6,2.6
		c0.6-0.5,1.3-0.7,2.1-0.7c0.8,0,1.5,0.3,2.1,0.7c0.2-1.3,1.2-2.4,2.6-2.6C357.2,427.5,356.9,426.8,356.9,426z"/>
	<path fill="#91CC41" d="M359.3,424.3c-0.1,0.1-0.2,0.3-0.3,0.4c-0.3,0.3-0.5,0.8-0.5,1.3c0,0.5,0.2,0.9,0.5,1.3
		c0.1,0.1,0.2,0.2,0.3,0.4c0.5-0.4,0.8-1,0.8-1.7S359.8,424.7,359.3,424.3z"/>
	<path fill="#91CC41" d="M358.1,429.1c-1.1,0-2,0.9-2,2c0,0.1,0,0.1,0,0.2c0.2,0.1,0.4,0.1,0.5,0.1c0.5,0,0.9-0.2,1.3-0.5
		c0.3-0.3,0.5-0.8,0.5-1.3c0-0.2,0-0.4-0.1-0.5C358.3,429.1,358.2,429.1,358.1,429.1z"/>
</g>
<g>
	<path fill="#E3B551" d="M353,455.5c-0.5,0-0.9,0.2-1.3,0.5c-0.1,0.1-0.3,0.2-0.4,0.3c0.4,0.5,1,0.8,1.7,0.8s1.3-0.3,1.7-0.8
		c-0.1-0.1-0.3-0.2-0.4-0.3C353.9,455.6,353.5,455.5,353,455.5z"/>
	<path fill="#E3B551" d="M347.9,453.1c-0.1,0-0.1,0-0.2,0c-0.1,0.2-0.1,0.4-0.1,0.5c0,0.5,0.2,0.9,0.5,1.3c0.3,0.3,0.8,0.5,1.3,0.5
		c0.2,0,0.4,0,0.5-0.1c0-0.1,0-0.1,0-0.2C349.9,454,349,453.1,347.9,453.1z"/>
	<path fill="#E3B551" d="M353,444.5c0.5,0,0.9-0.2,1.3-0.5c0.1-0.1,0.3-0.2,0.4-0.3c-0.4-0.5-1-0.8-1.7-0.8c-0.7,0-1.3,0.3-1.7,0.8
		c0.1,0.1,0.3,0.2,0.4,0.3C352.1,444.4,352.5,444.5,353,444.5z"/>
	<path fill="#E3B551" d="M347.9,446.9c1.1,0,2-0.9,2-2c0-0.1,0-0.1,0-0.2c-0.2-0.1-0.4-0.1-0.5-0.1c-0.5,0-0.9,0.2-1.3,0.5
		c-0.3,0.3-0.5,0.8-0.5,1.3c0,0.2,0,0.4,0.1,0.5C347.7,446.9,347.8,446.9,347.9,446.9z"/>
	<path fill="#E3B551" d="M346.7,448.3c-0.5,0.4-0.8,1-0.8,1.7s0.3,1.3,0.8,1.7c0.1-0.1,0.2-0.3,0.3-0.4c0.3-0.3,0.5-0.8,0.5-1.3
		c0-0.5-0.2-0.9-0.5-1.3C346.9,448.6,346.8,448.5,346.7,448.3z"/>
	<path fill="#E3B551" d="M356.6,444.6c-0.2,0-0.4,0-0.5,0.1c0,0.1,0,0.1,0,0.2c0,1.1,0.9,2,2,2c0.1,0,0.1,0,0.2,0
		c0.1-0.2,0.1-0.4,0.1-0.5c0-0.5-0.2-0.9-0.5-1.3C357.6,444.8,357.1,444.6,356.6,444.6z"/>
	<path fill="#E3B551" d="M353,439c-6.1,0-11,4.9-11,11s4.9,11,11,11c6.1,0,11-4.9,11-11S359.1,439,353,439z M359.8,452.6
		c0.1,0.3,0.2,0.7,0.2,1c0,0.9-0.3,1.7-1,2.4c-0.6,0.6-1.5,1-2.4,1c-0.4,0-0.7-0.1-1-0.2c-0.6,0.9-1.5,1.4-2.6,1.4s-2-0.6-2.6-1.4
		c-0.3,0.1-0.7,0.2-1,0.2c-0.9,0-1.7-0.3-2.4-1c-0.6-0.6-1-1.5-1-2.4c0-0.4,0.1-0.7,0.2-1c-0.9-0.6-1.4-1.5-1.4-2.6
		c0-1.1,0.6-2,1.4-2.6c-0.1-0.3-0.2-0.7-0.2-1c0-0.9,0.3-1.7,1-2.4c0.6-0.6,1.5-1,2.4-1c0.4,0,0.7,0.1,1,0.2
		c0.6-0.9,1.5-1.4,2.6-1.4c1.1,0,2,0.6,2.6,1.4c0.3-0.1,0.7-0.2,1-0.2c0.9,0,1.7,0.3,2.4,1c0.6,0.6,1,1.5,1,2.4c0,0.4-0.1,0.7-0.2,1
		c0.9,0.6,1.4,1.5,1.4,2.6C361.2,451.1,360.7,452,359.8,452.6z"/>
	<path fill="#E3B551" d="M356.9,450c0-0.8,0.3-1.5,0.7-2.1c-1.3-0.2-2.4-1.3-2.6-2.6c-0.6,0.5-1.3,0.7-2.1,0.7
		c-0.8,0-1.5-0.3-2.1-0.7c-0.2,1.3-1.2,2.4-2.6,2.6c0.5,0.6,0.7,1.3,0.7,2.1c0,0.8-0.3,1.5-0.7,2.1c1.3,0.2,2.4,1.2,2.6,2.6
		c0.6-0.5,1.3-0.7,2.1-0.7c0.8,0,1.5,0.3,2.1,0.7c0.2-1.3,1.2-2.4,2.6-2.6C357.2,451.5,356.9,450.8,356.9,450z"/>
	<path fill="#E3B551" d="M359.3,448.3c-0.1,0.1-0.2,0.3-0.3,0.4c-0.3,0.3-0.5,0.8-0.5,1.3c0,0.5,0.2,0.9,0.5,1.3
		c0.1,0.1,0.2,0.2,0.3,0.4c0.5-0.4,0.8-1,0.8-1.7S359.8,448.7,359.3,448.3z"/>
	<path fill="#E3B551" d="M358.1,453.1c-1.1,0-2,0.9-2,2c0,0.1,0,0.1,0,0.2c0.2,0.1,0.4,0.1,0.5,0.1c0.5,0,0.9-0.2,1.3-0.5
		c0.3-0.3,0.5-0.8,0.5-1.3c0-0.2,0-0.4-0.1-0.5C358.3,453.1,358.2,453.1,358.1,453.1z"/>
</g>
<g>
	<path fill="#F74687" d="M353,479.5c-0.5,0-0.9,0.2-1.3,0.5c-0.1,0.1-0.3,0.2-0.4,0.3c0.4,0.5,1,0.8,1.7,0.8s1.3-0.3,1.7-0.8
		c-0.1-0.1-0.3-0.2-0.4-0.3C353.9,479.6,353.5,479.5,353,479.5z"/>
	<path fill="#F74687" d="M347.9,477.1c-0.1,0-0.1,0-0.2,0c-0.1,0.2-0.1,0.4-0.1,0.5c0,0.5,0.2,0.9,0.5,1.3c0.3,0.3,0.8,0.5,1.3,0.5
		c0.2,0,0.4,0,0.5-0.1c0-0.1,0-0.1,0-0.2C349.9,478,349,477.1,347.9,477.1z"/>
	<path fill="#F74687" d="M353,468.5c0.5,0,0.9-0.2,1.3-0.5c0.1-0.1,0.3-0.2,0.4-0.3c-0.4-0.5-1-0.8-1.7-0.8c-0.7,0-1.3,0.3-1.7,0.8
		c0.1,0.1,0.3,0.2,0.4,0.3C352.1,468.4,352.5,468.5,353,468.5z"/>
	<path fill="#F74687" d="M347.9,470.9c1.1,0,2-0.9,2-2c0-0.1,0-0.1,0-0.2c-0.2-0.1-0.4-0.1-0.5-0.1c-0.5,0-0.9,0.2-1.3,0.5
		c-0.3,0.3-0.5,0.8-0.5,1.3c0,0.2,0,0.4,0.1,0.5C347.7,470.9,347.8,470.9,347.9,470.9z"/>
	<path fill="#F74687" d="M346.7,472.3c-0.5,0.4-0.8,1-0.8,1.7s0.3,1.3,0.8,1.7c0.1-0.1,0.2-0.3,0.3-0.4c0.3-0.3,0.5-0.8,0.5-1.3
		c0-0.5-0.2-0.9-0.5-1.3C346.9,472.6,346.8,472.5,346.7,472.3z"/>
	<path fill="#F74687" d="M356.6,468.6c-0.2,0-0.4,0-0.5,0.1c0,0.1,0,0.1,0,0.2c0,1.1,0.9,2,2,2c0.1,0,0.1,0,0.2,0
		c0.1-0.2,0.1-0.4,0.1-0.5c0-0.5-0.2-0.9-0.5-1.3C357.6,468.8,357.1,468.6,356.6,468.6z"/>
	<path fill="#F74687" d="M353,463c-6.1,0-11,4.9-11,11s4.9,11,11,11c6.1,0,11-4.9,11-11S359.1,463,353,463z M359.8,476.6
		c0.1,0.3,0.2,0.7,0.2,1c0,0.9-0.3,1.7-1,2.4c-0.6,0.6-1.5,1-2.4,1c-0.4,0-0.7-0.1-1-0.2c-0.6,0.9-1.5,1.4-2.6,1.4s-2-0.6-2.6-1.4
		c-0.3,0.1-0.7,0.2-1,0.2c-0.9,0-1.7-0.3-2.4-1c-0.6-0.6-1-1.5-1-2.4c0-0.4,0.1-0.7,0.2-1c-0.9-0.6-1.4-1.5-1.4-2.6
		c0-1.1,0.6-2,1.4-2.6c-0.1-0.3-0.2-0.7-0.2-1c0-0.9,0.3-1.7,1-2.4c0.6-0.6,1.5-1,2.4-1c0.4,0,0.7,0.1,1,0.2
		c0.6-0.9,1.5-1.4,2.6-1.4c1.1,0,2,0.6,2.6,1.4c0.3-0.1,0.7-0.2,1-0.2c0.9,0,1.7,0.3,2.4,1c0.6,0.6,1,1.5,1,2.4c0,0.4-0.1,0.7-0.2,1
		c0.9,0.6,1.4,1.5,1.4,2.6C361.2,475.1,360.7,476,359.8,476.6z"/>
	<path fill="#F74687" d="M356.9,474c0-0.8,0.3-1.5,0.7-2.1c-1.3-0.2-2.4-1.3-2.6-2.6c-0.6,0.5-1.3,0.7-2.1,0.7
		c-0.8,0-1.5-0.3-2.1-0.7c-0.2,1.3-1.2,2.4-2.6,2.6c0.5,0.6,0.7,1.3,0.7,2.1c0,0.8-0.3,1.5-0.7,2.1c1.3,0.2,2.4,1.2,2.6,2.6
		c0.6-0.5,1.3-0.7,2.1-0.7c0.8,0,1.5,0.3,2.1,0.7c0.2-1.3,1.2-2.4,2.6-2.6C357.2,475.5,356.9,474.8,356.9,474z"/>
	<path fill="#F74687" d="M359.3,472.3c-0.1,0.1-0.2,0.3-0.3,0.4c-0.3,0.3-0.5,0.8-0.5,1.3c0,0.5,0.2,0.9,0.5,1.3
		c0.1,0.1,0.2,0.2,0.3,0.4c0.5-0.4,0.8-1,0.8-1.7S359.8,472.7,359.3,472.3z"/>
	<path fill="#F74687" d="M358.1,477.1c-1.1,0-2,0.9-2,2c0,0.1,0,0.1,0,0.2c0.2,0.1,0.4,0.1,0.5,0.1c0.5,0,0.9-0.2,1.3-0.5
		c0.3-0.3,0.5-0.8,0.5-1.3c0-0.2,0-0.4-0.1-0.5C358.3,477.1,358.2,477.1,358.1,477.1z"/>
</g>
<g>
	<path fill="#78B2F2" d="M353,503.5c-0.5,0-0.9,0.2-1.3,0.5c-0.1,0.1-0.3,0.2-0.4,0.3c0.4,0.5,1,0.8,1.7,0.8s1.3-0.3,1.7-0.8
		c-0.1-0.1-0.3-0.2-0.4-0.3C353.9,503.6,353.5,503.5,353,503.5z"/>
	<path fill="#78B2F2" d="M347.9,501.1c-0.1,0-0.1,0-0.2,0c-0.1,0.2-0.1,0.4-0.1,0.5c0,0.5,0.2,0.9,0.5,1.3c0.3,0.3,0.8,0.5,1.3,0.5
		c0.2,0,0.4,0,0.5-0.1c0-0.1,0-0.1,0-0.2C349.9,502,349,501.1,347.9,501.1z"/>
	<path fill="#78B2F2" d="M353,492.5c0.5,0,0.9-0.2,1.3-0.5c0.1-0.1,0.3-0.2,0.4-0.3c-0.4-0.5-1-0.8-1.7-0.8c-0.7,0-1.3,0.3-1.7,0.8
		c0.1,0.1,0.3,0.2,0.4,0.3C352.1,492.4,352.5,492.5,353,492.5z"/>
	<path fill="#78B2F2" d="M347.9,494.9c1.1,0,2-0.9,2-2c0-0.1,0-0.1,0-0.2c-0.2-0.1-0.4-0.1-0.5-0.1c-0.5,0-0.9,0.2-1.3,0.5
		c-0.3,0.3-0.5,0.8-0.5,1.3c0,0.2,0,0.4,0.1,0.5C347.7,494.9,347.8,494.9,347.9,494.9z"/>
	<path fill="#78B2F2" d="M346.7,496.3c-0.5,0.4-0.8,1-0.8,1.7s0.3,1.3,0.8,1.7c0.1-0.1,0.2-0.3,0.3-0.4c0.3-0.3,0.5-0.8,0.5-1.3
		c0-0.5-0.2-0.9-0.5-1.3C346.9,496.6,346.8,496.5,346.7,496.3z"/>
	<path fill="#78B2F2" d="M356.6,492.6c-0.2,0-0.4,0-0.5,0.1c0,0.1,0,0.1,0,0.2c0,1.1,0.9,2,2,2c0.1,0,0.1,0,0.2,0
		c0.1-0.2,0.1-0.4,0.1-0.5c0-0.5-0.2-0.9-0.5-1.3C357.6,492.8,357.1,492.6,356.6,492.6z"/>
	<path fill="#78B2F2" d="M353,487c-6.1,0-11,4.9-11,11s4.9,11,11,11c6.1,0,11-4.9,11-11S359.1,487,353,487z M359.8,500.6
		c0.1,0.3,0.2,0.7,0.2,1c0,0.9-0.3,1.7-1,2.4c-0.6,0.6-1.5,1-2.4,1c-0.4,0-0.7-0.1-1-0.2c-0.6,0.9-1.5,1.4-2.6,1.4s-2-0.6-2.6-1.4
		c-0.3,0.1-0.7,0.2-1,0.2c-0.9,0-1.7-0.3-2.4-1c-0.6-0.6-1-1.5-1-2.4c0-0.4,0.1-0.7,0.2-1c-0.9-0.6-1.4-1.5-1.4-2.6
		c0-1.1,0.6-2,1.4-2.6c-0.1-0.3-0.2-0.7-0.2-1c0-0.9,0.3-1.7,1-2.4c0.6-0.6,1.5-1,2.4-1c0.4,0,0.7,0.1,1,0.2
		c0.6-0.9,1.5-1.4,2.6-1.4c1.1,0,2,0.6,2.6,1.4c0.3-0.1,0.7-0.2,1-0.2c0.9,0,1.7,0.3,2.4,1c0.6,0.6,1,1.5,1,2.4c0,0.4-0.1,0.7-0.2,1
		c0.9,0.6,1.4,1.5,1.4,2.6C361.2,499.1,360.7,500,359.8,500.6z"/>
	<path fill="#78B2F2" d="M356.9,498c0-0.8,0.3-1.5,0.7-2.1c-1.3-0.2-2.4-1.3-2.6-2.6c-0.6,0.5-1.3,0.7-2.1,0.7
		c-0.8,0-1.5-0.3-2.1-0.7c-0.2,1.3-1.2,2.4-2.6,2.6c0.5,0.6,0.7,1.3,0.7,2.1c0,0.8-0.3,1.5-0.7,2.1c1.3,0.2,2.4,1.2,2.6,2.6
		c0.6-0.5,1.3-0.7,2.1-0.7c0.8,0,1.5,0.3,2.1,0.7c0.2-1.3,1.2-2.4,2.6-2.6C357.2,499.5,356.9,498.8,356.9,498z"/>
	<path fill="#78B2F2" d="M359.3,496.3c-0.1,0.1-0.2,0.3-0.3,0.4c-0.3,0.3-0.5,0.8-0.5,1.3c0,0.5,0.2,0.9,0.5,1.3
		c0.1,0.1,0.2,0.2,0.3,0.4c0.5-0.4,0.8-1,0.8-1.7S359.8,496.7,359.3,496.3z"/>
	<path fill="#78B2F2" d="M358.1,501.1c-1.1,0-2,0.9-2,2c0,0.1,0,0.1,0,0.2c0.2,0.1,0.4,0.1,0.5,0.1c0.5,0,0.9-0.2,1.3-0.5
		c0.3-0.3,0.5-0.8,0.5-1.3c0-0.2,0-0.4-0.1-0.5C358.3,501.1,358.2,501.1,358.1,501.1z"/>
</g>
</svg>
