<?xml version="1.0" encoding="utf-8"?>
<!-- Generator: Adobe Illustrator 18.0.0, SVG Export Plug-In . SVG Version: 6.00 Build 0)  -->
<!DOCTYPE svg PUBLIC "-//W3C//DTD SVG 1.1//EN" "http://www.w3.org/Graphics/SVG/1.1/DTD/svg11.dtd">
<svg version="1.1" id="Layer_1" xmlns="http://www.w3.org/2000/svg" xmlns:xlink="http://www.w3.org/1999/xlink" x="0px" y="0px"
	 width="24px" height="120px" viewBox="0 0 24 120" enable-background="new 0 0 24 120" xml:space="preserve">
<g>
	<path fill="#78B2F2" d="M21,101.8c0-1.6-1.3-2.8-2.8-2.8H5.8c-1.6,0-2.8,1.3-2.8,2.8v12.3c0,1.6,1.3,2.8,2.8,2.8h12.3
		c1.6,0,2.8-1.3,2.8-2.8V101.8z M11.5,114.8c-1.3,0-2.8-0.1-3.8-0.7V111l1.9-0.1v1.3c0,0.3,0.1,0.5,0.4,0.6c0.3,0.1,1,0.1,1.6,0.1
		c1.3,0,2.4-0.4,2.4-1.9c0-1.3-1-1.7-2.5-2.1c-1.8-0.5-3.7-1.2-3.7-3.7c0-2.4,1.8-3.8,4.6-3.8c1.2,0,2.7,0.2,3.7,0.7v3.1l-1.9,0.1
		v-1.3c0-0.3-0.1-0.5-0.4-0.6c-0.3-0.1-1-0.1-1.4-0.1c-1,0-2.1,0.4-2.1,1.6s1,1.6,2.5,2.1c1.8,0.6,3.7,1.3,3.7,3.8
		C16.4,113.3,14.7,114.8,11.5,114.8z"/>
</g>
<g>
	<path fill="#91CC41" d="M21,29.8c0-1.6-1.3-2.8-2.8-2.8H5.8C4.3,27,3,28.3,3,29.8v12.3C3,43.7,4.3,45,5.8,45h12.3
		c1.6,0,2.8-1.3,2.8-2.8V29.8z M11.6,42.7c-1.3,0-2.8-0.1-3.9-0.7v-3.1l1.9-0.1v1.3c0,0.3,0.1,0.5,0.4,0.6c0.3,0.1,1,0.1,1.6,0.1
		c1.3,0,2.4-0.4,2.4-1.9c0-1.3-1-1.7-2.5-2.1c-1.8-0.5-3.7-1.2-3.7-3.7c0-2.4,1.8-3.8,4.5-3.8c1.2,0,2.6,0.2,3.6,0.7V33l-1.9,0.1
		v-1.3c0-0.3,0-0.5-0.3-0.6s-0.9-0.1-1.3-0.1c-1,0-2.1,0.4-2.1,1.6c0,1.3,1,1.6,2.5,2.1c1.8,0.6,3.7,1.2,3.7,3.8
		C16.4,41.3,14.7,42.7,11.6,42.7z"/>
</g>
<g>
	<path fill="#E3B551" d="M21,53.8c0-1.6-1.3-2.8-2.8-2.8H5.8C4.3,51,3,52.3,3,53.8v12.3C3,67.7,4.3,69,5.8,69h12.3
		c1.6,0,2.8-1.3,2.8-2.8V53.8z M11.6,66.8c-1.3,0-2.8-0.1-3.9-0.7V63l1.9-0.1v1.3c0,0.3,0.1,0.5,0.4,0.6c0.3,0.1,1,0.1,1.6,0.1
		c1.3,0,2.4-0.4,2.4-1.9c0-1.3-1-1.7-2.5-2.1c-1.8-0.5-3.7-1.2-3.7-3.7c0-2.4,1.8-3.8,4.6-3.8c1.2,0,2.6,0.2,3.6,0.7V57L14,57.2
		v-1.3c0-0.3,0-0.5-0.3-0.6c-0.3-0.1-0.9-0.1-1.3-0.1c-1,0-2.1,0.4-2.1,1.6c0,1.3,1,1.6,2.5,2.1c1.8,0.6,3.7,1.3,3.7,3.8
		S14.7,66.8,11.6,66.8z"/>
</g>
<g>
	<path fill="#F74687" d="M21,77.8c0-1.6-1.3-2.8-2.8-2.8H5.8C4.3,75,3,76.3,3,77.8v12.3C3,91.7,4.3,93,5.8,93h12.3
		c1.6,0,2.8-1.3,2.8-2.8V77.8z M11.6,90.7c-1.3,0-2.8-0.1-3.9-0.7v-3.1l1.9-0.1v1.3c0,0.3,0.1,0.5,0.4,0.6c0.3,0.1,1,0.1,1.6,0.1
		c1.3,0,2.4-0.4,2.4-1.9c0-1.3-1-1.7-2.5-2.1c-1.8-0.5-3.7-1.2-3.7-3.7c0-2.4,1.8-3.8,4.6-3.8c1.2,0,2.7,0.2,3.7,0.7V81l-1.9,0.1
		v-1.3c0-0.3,0-0.5-0.3-0.6c-0.3-0.1-0.9-0.1-1.3-0.1c-1,0-2.1,0.4-2.1,1.6s1,1.6,2.5,2.1c1.8,0.6,3.7,1.2,3.7,3.8
		C16.5,89.3,14.7,90.7,11.6,90.7z"/>
</g>
<g>
	<path fill="#BBBBBB" d="M21,5.8C21,4.3,19.7,3,18.2,3H5.8C4.3,3,3,4.3,3,5.8v12.3C3,19.7,4.3,21,5.8,21h12.3c1.6,0,2.8-1.3,2.8-2.8
		V5.8z M11.6,18.7c-1.3,0-2.8-0.1-3.9-0.7v-3.1l1.9-0.1v1.3c0,0.3,0.1,0.5,0.4,0.6s1,0.1,1.6,0.1c1.3,0,2.4-0.4,2.4-1.9
		c0-1.3-1-1.7-2.5-2.1C9.6,12.3,7.7,11.6,7.7,9c0-2.4,1.8-3.8,4.6-3.8c1.2,0,2.6,0.2,3.6,0.7V9L14,9.1V7.9c0-0.3,0-0.5-0.3-0.6
		c-0.3-0.1-0.9-0.1-1.3-0.1c-1,0-2.1,0.4-2.1,1.6s1,1.6,2.5,2.1c1.8,0.6,3.7,1.2,3.7,3.8S14.7,18.7,11.6,18.7z"/>
</g>
</svg>
