<?xml version="1.0" encoding="utf-8"?>
<!-- Generator: Adobe Illustrator 18.0.0, SVG Export Plug-In . SVG Version: 6.00 Build 0)  -->
<!DOCTYPE svg PUBLIC "-//W3C//DTD SVG 1.1//EN" "http://www.w3.org/Graphics/SVG/1.1/DTD/svg11.dtd">
<svg version="1.1" id="Layer_1" xmlns="http://www.w3.org/2000/svg" xmlns:xlink="http://www.w3.org/1999/xlink" x="0px" y="0px"
	 viewBox="33 -90 256 256" enable-background="new 33 -90 256 256" xml:space="preserve">
<g>
	<path fill="#BBBBBB" d="M145.1-57.5c39.5,0,71.6,12.5,71.6,27.8S184.6-1.8,145.1-1.8S73.5-14.2,73.5-29.6S105.6-57.5,145.1-57.5z"
		/>
	<path fill="#BBBBBB" d="M151.2,45.8c1.4-1.8,3-3.5,4.6-5.1c5.8-5.8,12.6-10.4,20.2-13.6c7.8-3.3,16.2-5,24.8-5
		c5.1,0,10.1,0.6,14.9,1.8c0.7-1.3,1-2.5,1-3.8V-7.7H216c-9.2,13.9-34.8,21.9-70.9,21.9c-36.1,0-61.6-8-70.9-21.9h-0.7v27.8
		C73.5,32,105.6,46,145.1,46C147.1,46,149.2,45.9,151.2,45.8z"/>
	<path fill="#BBBBBB" d="M142.1,110.5c-3.3-7.8-5-16.2-5-24.8c0-8.3,1.5-16.3,4.6-23.9c-34.3-0.5-58.6-8.4-67.6-21.8h-0.7v51.7
		c0,11.9,32.1,25.8,71.6,25.8c0.2,0,0.4,0,0.6,0C144.3,115.3,143.2,112.9,142.1,110.5z"/>
	<path fill="#F74687" d="M200.8,38C174.4,38,153,59.4,153,85.7s21.4,47.7,47.7,47.7c26.3,0,47.7-21.4,47.7-47.7S227.1,38,200.8,38z
		 M200.8,51.9c6.8,0,13.2,2,18.5,5.5l-46.8,46.8c-3.5-5.3-5.5-11.6-5.5-18.5C167,67.1,182.1,51.9,200.8,51.9z M200.8,119.5
		c-6.8,0-13.2-2-18.5-5.5l46.8-46.8c3.5,5.3,5.5,11.6,5.5,18.5C234.6,104.4,219.4,119.5,200.8,119.5z"/>
</g>
</svg>
