<?xml version="1.0" encoding="utf-8"?>
<!-- Generator: Adobe Illustrator 18.0.0, SVG Export Plug-In . SVG Version: 6.00 Build 0)  -->
<!DOCTYPE svg PUBLIC "-//W3C//DTD SVG 1.1//EN" "http://www.w3.org/Graphics/SVG/1.1/DTD/svg11.dtd">
<svg version="1.1" id="Layer_1" xmlns="http://www.w3.org/2000/svg" xmlns:xlink="http://www.w3.org/1999/xlink" x="0px" y="0px"
	 viewBox="33 -90 256 256" enable-background="new 33 -90 256 256" xml:space="preserve">
<g>
	<path fill="#BBBBBB" d="M145.1-57.5c39.5,0,71.6,12.5,71.6,27.8S184.6-1.8,145.1-1.8S73.5-14.2,73.5-29.6S105.6-57.5,145.1-57.5z"
		/>
	<path fill="#BBBBBB" d="M151.2,45.8c1.4-1.8,2.9-3.5,4.6-5.1c5.8-5.8,12.6-10.4,20.2-13.6c7.8-3.3,16.2-5,24.8-5
		c5.1,0,10.1,0.6,14.9,1.8c0.7-1.3,1-2.5,1-3.8V-7.7H216c-9.2,13.9-34.8,21.9-70.9,21.9c-36.1,0-61.6-8-70.9-21.9h-0.7v27.8
		C73.5,32,105.6,46,145.1,46C147.1,46,149.2,45.9,151.2,45.8z"/>
	<path fill="#78B2F2" d="M236.5,54c-8.7-9.8-21.5-16-35.7-16c-23.7,0-43.3,17.2-47.1,39.8H170c3.5-13.7,16-23.9,30.8-23.9
		c9.8,0,18.6,4.4,24.4,11.4l-12.5,12.5h35.8V42L236.5,54z"/>
	<path fill="#78B2F2" d="M231.6,93.7c-3.5,13.7-16,23.9-30.8,23.9c-9.8,0-18.6-4.4-24.4-11.4l12.5-12.5H153v35.8l12-12
		c8.7,9.8,21.5,16,35.7,16c23.7,0,43.3-17.2,47.1-39.8H231.6z"/>
	<path fill="#BBBBBB" d="M136.5,85.7c0-8.3,1.9-17.3,4.9-24.9c-34.3-0.5-58.3-6.1-67.2-22.8h-0.5v53.7c0,11.1,27.8,23.9,62.8,25.6
		V85.7z"/>
</g>
</svg>
