<?xml version="1.0" encoding="utf-8"?>
<!-- Generator: Adobe Illustrator 18.0.0, SVG Export Plug-In . SVG Version: 6.00 Build 0)  -->
<!DOCTYPE svg PUBLIC "-//W3C//DTD SVG 1.1//EN" "http://www.w3.org/Graphics/SVG/1.1/DTD/svg11.dtd">
<svg version="1.1" id="Layer_1" xmlns="http://www.w3.org/2000/svg" xmlns:xlink="http://www.w3.org/1999/xlink" x="0px" y="0px"
	 viewBox="33 -90 256 256" enable-background="new 33 -90 256 256" xml:space="preserve">
<g>
	<path fill="#BBBBBB" d="M145.1-57.5c39.5,0,71.6,12.5,71.6,27.8S184.6-1.8,145.1-1.8S73.5-14.2,73.5-29.6S105.6-57.5,145.1-57.5z"
		/>
	<path fill="#BBBBBB" d="M177.7,42.7l2.9-5.8c2.2-4.4,8.6-14.8,20.2-14.8c5.3,0,9,2.2,12.2,4.9c2.1-2.3,2.9-4.6,2.9-6.9V-9.5h0.1
		c-9.2,14.8-34.8,21.9-70.9,21.9c-36.1,0-61.6-7-70.9-21.9h-0.7v29.6C73.5,32,105.6,46,145.1,46C156.8,46,167.9,44.7,177.7,42.7z"/>
	<g>
		<path fill="#E3B551" d="M248,125.5c-1-2-41.3-81.5-41.3-81.5s-3-6-6-6c-3,0-6,6-6,6s-40.3,80.5-41.3,82.5c-1,2-1,7,5,7
			s84.5,0,84.5,0C249,133.5,249,127.5,248,125.5z M192.8,67.8c0-0.3,6.2-2,8-2c2.4,0,8,1.7,8,2v9.9c0,9-3.5,21-4,23.4
			c0,0.2-0.1,0.5-0.8,0.5h-6.3c-0.5,0-0.7-0.2-0.8-0.5c-0.2-2.3-4-14.4-4-23.4V67.8z M210.7,117.5c0,5.5-4.5,9.9-9.9,9.9
			c-5.5,0-9.9-4.5-9.9-9.9s4.5-9.9,9.9-9.9C206.3,107.6,210.7,112,210.7,117.5z"/>
	</g>
	<path fill="#BBBBBB" d="M139.3,119.4l30.5-60.9c-7.5,0.9-15.8,1.8-24.7,1.8c-36.1,0-61.6-8.6-70.9-21.6h-0.7v55
		C73.5,105,102.5,118.1,139.3,119.4C139.3,119.4,139.3,119.4,139.3,119.4z"/>
</g>
</svg>
